<?xml version="1.0" encoding="UTF-8"?>
<svg version="1.1" xmlns="http://www.w3.org/2000/svg" width="2380" height="2380">
<path d="M0 0 C1.29099609 0.01933594 2.58199219 0.03867188 3.91210938 0.05859375 C87.9884559 1.46192992 172.05419296 15.21107844 335 72 C335.61085449 72.26772217 336.22170898 72.53544434 336.85107422 72.8112793 C381.88670834 92.54954434 424.93685669 115.92735047 466 143 C466.61182129 143.40105957 467.22364258 143.80211914 467.85400391 144.21533203 C486.45160515 156.41268669 504.42954454 169.36649306 522 183 C522.69416016 183.53818359 523.38832031 184.07636719 524.10351562 184.63085938 C539.98071575 196.96560882 555.44900524 209.76478984 570.20703125 223.421875 C572.76475623 225.7828519 575.34425368 228.11568848 577.9375 230.4375 C588.25641735 239.71536875 598.33740177 249.17116374 608.13183594 259.00146484 C609.8914348 260.76648544 611.65640397 262.52601133 613.421875 264.28515625 C618.61561382 269.47584469 623.73925551 274.66818798 628.50537109 280.26025391 C631.03160982 283.20079248 633.71529998 285.9931854 636.375 288.8125 C641.09747432 293.85431643 645.5665215 299.02364567 649.88671875 304.41796875 C652.03619026 307.04421768 654.27460088 309.55633453 656.5625 312.0625 C660.13643452 315.99382797 663.50696751 320.02919048 666.79296875 324.203125 C668.40637011 326.24771858 670.03211727 328.27693662 671.67578125 330.296875 C708.24324012 375.34472785 739.21191893 425.20979625 765.42871094 476.90869141 C766.86879014 479.74186153 768.32605028 482.56534544 769.7890625 485.38671875 C806.15188851 556.05258833 830.49822122 633.68049788 861 863 C861.01659668 863.87462891 861.03319336 864.74925781 861.05029297 865.65039062 C861.14627233 871.76937083 861.10107795 877.88134909 861 884 C860.97317139 885.7641626 860.97317139 885.7641626 860.94580078 887.56396484 C860.64957406 904.76889918 859.85274978 921.90280314 858.5625 939.0625 C858.50105804 939.88827545 858.43961609 940.7140509 858.37631226 941.56484985 C858.1949247 943.97205954 858.00713254 946.37866976 857.81640625 948.78515625 C857.76426971 949.46443176 857.71213318 950.14370728 857.65841675 950.84356689 C856.99579959 958.91852957 855.9685009 966.95725995 855 975 C855.9726104 974.99723462 855.9726104 974.99723462 856.9648695 974.99441338 C872.88933271 974.94985589 888.81377364 974.91696232 904.73828411 974.89637566 C912.43988499 974.88615041 920.14144377 974.8722622 927.84301758 974.84912109 C934.57138424 974.82891419 941.29972035 974.81622042 948.02811652 974.81182301 C951.57650376 974.80926073 955.12480378 974.80343232 958.67316246 974.78853989 C982.67895046 974.69178854 1006.61930093 975.5350318 1030.4375 978.75 C1031.70424561 978.91846436 1032.97099121 979.08692871 1034.27612305 979.26049805 C1113.6797429 990.27719211 1191.14752657 1022.04452761 1254 1072 C1255.16796683 1072.90273133 1256.33729266 1073.80370648 1257.5078125 1074.703125 C1264.02644641 1079.73072923 1270.28053207 1084.89824534 1276.3046875 1090.515625 C1277.71889477 1091.81915518 1279.13875376 1093.11793331 1280.60424805 1094.36352539 C1287.13322721 1099.91554368 1293.13629236 1105.98537147 1299.18188477 1112.05151367 C1301.05829475 1113.93328274 1302.93998969 1115.80964738 1304.82226562 1117.68554688 C1310.75873624 1123.61808491 1316.62172549 1129.5483846 1322 1136 C1322.79700317 1136.93694702 1322.79700317 1136.93694702 1323.61010742 1137.89282227 C1345.84435343 1164.12282614 1364.85661712 1192.65475467 1381 1223 C1381.45987305 1223.86238281 1381.91974609 1224.72476562 1382.39355469 1225.61328125 C1404.13338637 1266.76735667 1418.67752633 1311.44370741 1427.140625 1357.140625 C1427.36028427 1358.32567627 1427.36028427 1358.32567627 1427.5843811 1359.53466797 C1432.05515542 1383.84722951 1435.51322119 1408.32742907 1439.09001404 1432.78376901 C1440.12170607 1439.83672531 1441.16050946 1446.88862951 1442.1996187 1453.94049621 C1443.58123988 1463.3173587 1444.96140615 1472.69443288 1446.33705139 1482.07217407 C1448.75958718 1498.58526621 1451.19860497 1515.09577755 1453.66091156 1531.60299683 C1459.92604379 1573.61565288 1466.0144893 1615.64441767 1471.625 1657.75 C1471.74674969 1658.66198906 1471.86849937 1659.57397812 1471.99393845 1660.51360321 C1474.58174943 1679.90512467 1477.08397046 1699.30738863 1479.44184494 1718.72830963 C1479.65799482 1720.50449093 1479.87590882 1722.28045871 1480.09584427 1724.05617523 C1487.81901972 1786.59201723 1476.79421714 1850.23901845 1439 1902 C1438.40155273 1902.82153564 1438.40155273 1902.82153564 1437.79101562 1903.65966797 C1426.12777538 1919.51585248 1413.17488679 1934.55649838 1397.7265625 1946.828125 C1395.94683126 1948.24579057 1394.19001353 1949.69284997 1392.4609375 1951.171875 C1345.61802421 1991.08033889 1280.13579185 2007.61174452 1219.66308594 2003.7890625 C1164.26787335 1999.32906368 1111.96944027 1975.40983416 1072 1937 C1071.10812988 1936.14897705 1071.10812988 1936.14897705 1070.19824219 1935.28076172 C1061.29752792 1926.74498133 1053.3195606 1917.91974467 1046 1908 C1045.16287701 1906.89314098 1044.32563808 1905.78636963 1043.48828125 1904.6796875 C1026.84631809 1882.37834718 1015.25696292 1856.40279466 1003.36504459 1831.36864185 C996.60572762 1817.14989628 989.62227311 1803.0461585 982.59765625 1788.95703125 C981.97766068 1787.71297379 981.35768552 1786.46890615 980.73773003 1785.22482872 C977.8351424 1779.40079693 974.9307327 1773.57767848 972.02398306 1767.75572282 C968.69326642 1761.08442777 965.3692829 1754.40983095 962.05063444 1747.73252469 C959.460659 1742.52243874 956.86456833 1737.31542915 954.26385874 1732.11069316 C952.71959258 1729.01981855 951.17796328 1725.92769641 949.64286995 1722.83225441 C947.94138885 1719.40172226 946.22726994 1715.97759677 944.51196289 1712.55395508 C944.01063339 1711.53848602 943.50930389 1710.52301697 942.99278259 1709.47677612 C942.52357391 1708.54530258 942.05436523 1707.61382904 941.57093811 1706.65412903 C941.16857469 1705.84701383 940.76621126 1705.03989862 940.35165501 1704.20832539 C937.9162111 1700.22931256 936.04524705 1698.37782546 931.58697414 1696.76629353 C925.66128603 1695.52761848 919.6344887 1695.72109391 913.6084137 1695.73930359 C912.25086204 1695.73627985 910.89331208 1695.73238925 909.53576511 1695.72771102 C905.82006807 1695.71745108 902.10446773 1695.7196077 898.38876283 1695.72389162 C894.37573168 1695.72636246 890.36272359 1695.71734027 886.34970093 1695.70985413 C878.49372024 1695.69711543 870.63777375 1695.69531237 862.78178448 1695.69765439 C856.39570195 1695.6994385 850.0096298 1695.69768591 843.62354851 1695.69342995 C842.71413709 1695.69283476 841.80472566 1695.69223957 840.86775632 1695.69162634 C839.02020717 1695.69041458 837.17265802 1695.68920044 835.32510888 1695.68798397 C818.00547147 1695.67711179 800.68585354 1695.6792695 783.36621504 1695.68536881 C767.5265561 1695.69053865 751.68695864 1695.6792802 735.84731186 1695.66027059 C719.57596076 1695.64089283 703.30463874 1695.63263603 687.03327602 1695.63639385 C677.90099911 1695.63830586 668.76877453 1695.63581822 659.63650703 1695.62167931 C651.86282539 1695.60976539 644.08922832 1695.60836081 636.31554551 1695.62046947 C632.35087327 1695.62635785 628.38635573 1695.62745874 624.4216938 1695.61546707 C620.78906284 1695.6046075 617.15671572 1695.60771232 613.52409803 1695.62172876 C611.59452291 1695.62562484 609.66493517 1695.61482923 607.73538977 1695.60343188 C601.22991584 1695.64388145 594.82530124 1695.77194232 589 1699 C586.78961136 1701.44983269 585.44082548 1704.04032995 584 1707 C583.50072369 1707.95606707 583.00144737 1708.91213413 582.48704147 1709.89717293 C580.68228897 1713.37875775 578.92829544 1716.88410959 577.18115234 1720.39477539 C576.50895309 1721.73809897 575.83640713 1723.0812491 575.1635437 1724.42424011 C573.34544886 1728.05560516 571.53233692 1731.68943687 569.72024107 1735.32379842 C567.80887468 1739.15537892 565.89323899 1742.98482414 563.97817993 1746.81455994 C560.75599792 1753.25985939 557.53690863 1759.70669578 554.31982422 1766.15454102 C550.630677 1773.54846341 546.93743208 1780.94032656 543.24173772 1788.33097845 C539.27556882 1796.26263295 535.31247265 1804.19581995 531.35023165 1812.12943721 C530.22520378 1814.38159701 529.0996279 1816.63348217 527.97391891 1818.88530159 C520.72356125 1833.39090094 513.47630759 1847.89256077 506.56834984 1862.56556034 C495.7241795 1885.52287536 482.37893615 1905.76036127 465.25390625 1924.5234375 C463.7257804 1926.20252205 462.21314142 1927.89580823 460.71484375 1929.6015625 C456.10096431 1934.8406503 451.36479242 1939.54206751 446 1944 C444.72769531 1945.10408203 444.72769531 1945.10408203 443.4296875 1946.23046875 C394.53210809 1988.13316282 330.65814164 2008.01453013 266.63574219 2003.77734375 C218.46609877 1999.650593 172.90384728 1981.97681963 135 1952 C134.38108887 1951.51096191 133.76217773 1951.02192383 133.12451172 1950.51806641 C118.38379275 1938.70825062 104.43791026 1925.03661149 93 1910 C92.24332031 1909.071875 91.48664062 1908.14375 90.70703125 1907.1875 C58.34575332 1866.85166232 42.12910196 1815.57588484 41.875 1764.1875 C41.87024658 1763.41067871 41.86549316 1762.63385742 41.8605957 1761.83349609 C41.87597898 1756.48809334 42.33499336 1751.30421964 43 1746 C41.91161331 1746.23791512 41.91161331 1746.23791512 40.80123901 1746.4806366 C38.22005539 1746.95920066 35.79906368 1747.19557529 33.18017578 1747.30981445 C32.24849579 1747.35083786 31.3168158 1747.39186127 30.35690308 1747.43412781 C29.35482819 1747.47262344 28.3527533 1747.51111908 27.3203125 1747.55078125 C25.73393478 1747.61353996 25.73393478 1747.61353996 24.11550903 1747.67756653 C12.03655354 1748.12031322 -0.03901532 1748.19917989 -12.125 1748.1875 C-13.29598236 1748.18689575 -14.46696472 1748.1862915 -15.6734314 1748.18566895 C-36.50694931 1748.15672689 -57.22834458 1747.61654574 -78 1746 C-78.7892688 1745.9391925 -79.5785376 1745.87838501 -80.39172363 1745.81573486 C-125.49741021 1742.29506513 -169.89181165 1734.98652409 -214 1725 C-214.78570374 1724.82210938 -215.57140747 1724.64421875 -216.38092041 1724.4609375 C-292.84307729 1707.04417647 -369.50852564 1678.17342244 -437.28173828 1638.57226562 C-440.08692763 1636.94972032 -442.91200376 1635.36834616 -445.74609375 1633.796875 C-459.16273293 1626.35044868 -472.16995974 1618.41499699 -485 1610 C-486.08925781 1609.28618164 -487.17851562 1608.57236328 -488.30078125 1607.83691406 C-508.43221465 1594.62006718 -527.97729952 1580.77265079 -547 1566 C-547.63454102 1565.50725586 -548.26908203 1565.01451172 -548.92285156 1564.50683594 C-564.51558538 1552.37371444 -579.77021374 1539.83869377 -594.3046875 1526.44921875 C-596.47820259 1524.47415503 -598.67223216 1522.5339319 -600.88671875 1520.60546875 C-612.39090711 1510.56151019 -623.25594402 1499.84516995 -634.0625 1489.0625 C-634.60292938 1488.52465881 -635.14335876 1487.98681763 -635.70016479 1487.43267822 C-641.11590302 1482.03741635 -646.46167708 1476.62753472 -651.43237305 1470.81274414 C-654.14463805 1467.67638413 -657.02326119 1464.69649058 -659.875 1461.6875 C-664.68933327 1456.56843001 -669.28090011 1451.35729114 -673.66796875 1445.86328125 C-676.49003974 1442.39832642 -679.42930987 1439.04728075 -682.375 1435.6875 C-688.05376823 1429.18404861 -693.45283973 1422.50584695 -698.71777344 1415.66455078 C-699.94404246 1414.07264252 -701.1788552 1412.48732658 -702.4140625 1410.90234375 C-714.50163646 1395.33024114 -726.05192951 1379.39355139 -737 1363 C-737.77029541 1361.84757812 -737.77029541 1361.84757812 -738.55615234 1360.671875 C-747.78102748 1346.80985021 -756.39892297 1332.58839311 -764.98291016 1318.32519531 C-766.98813177 1315.01956491 -769.02927164 1311.73819489 -771.07421875 1308.45703125 C-774.96823195 1302.14111435 -778.52217684 1295.67733491 -782 1289.125 C-782.91543579 1287.40869385 -782.91543579 1287.40869385 -783.84936523 1285.65771484 C-785.04518177 1283.41569811 -786.23981937 1281.17305205 -787.43310547 1278.9296875 C-788.6795093 1276.59923471 -789.94012779 1274.27939063 -791.22265625 1271.96875 C-798.17873714 1259.32670065 -804.02989815 1246.1269656 -810 1233 C-810.7101123 1231.44877441 -810.7101123 1231.44877441 -811.43457031 1229.86621094 C-817.38812201 1216.82162289 -822.83817272 1203.5999217 -828.0625 1190.25 C-828.33633514 1189.55455078 -828.61017029 1188.85910156 -828.89230347 1188.14257812 C-830.2936785 1184.57342717 -831.65062701 1180.99454481 -832.95491409 1177.38874054 C-834.31623773 1173.68519812 -835.84826736 1170.11855966 -837.49868393 1166.53551483 C-847.54891926 1143.26279721 -846.43654761 1119.41269517 -846.30724669 1094.49053788 C-846.28673909 1088.6301562 -846.31372159 1082.77009614 -846.33872034 1076.90975969 C-846.391002 1064.20719207 -846.38696591 1051.50513165 -846.35793122 1038.8025174 C-846.33264949 1027.68551616 -846.32626684 1016.56869956 -846.33815765 1005.45167542 C-846.3389215 1004.71063657 -846.33968536 1003.96959772 -846.34047235 1003.20610315 C-846.34358638 1000.19703256 -846.34677045 997.18796205 -846.35006999 994.17889166 C-846.38057357 966.02393876 -846.35306342 937.86930649 -846.29910102 909.71440316 C-846.25165433 884.76955407 -846.25590102 859.82521573 -846.30371094 834.88037109 C-846.3574042 806.77279772 -846.37840919 778.66550702 -846.3475883 750.55788946 C-846.34438174 747.55470123 -846.34125329 744.55151293 -846.33815765 741.54832458 C-846.33736688 740.80901025 -846.33657611 740.06969592 -846.33576137 739.30797813 C-846.32444697 728.20536767 -846.33757573 717.1029633 -846.36295319 706.00038147 C-846.39170363 693.36008356 -846.38406584 680.7203664 -846.33014575 668.08013976 C-846.30405326 661.64375204 -846.29324411 655.20839417 -846.32663727 648.77201653 C-846.5585868 600.08815388 -846.5585868 600.08815388 -836.18842173 577.6035223 C-834.74018117 574.43080466 -833.52617081 571.20082208 -832.33623242 567.9243741 C-831.18932154 564.77560724 -829.93261219 561.6737331 -828.6875 558.5625 C-828.42031158 557.890979 -828.15312317 557.21945801 -827.87783813 556.52758789 C-811.55219208 515.52103892 -792.72459017 475.5440213 -770.25 437.53125 C-767.52409382 432.91672522 -764.89852103 428.25630529 -762.3125 423.5625 C-757.61899878 415.10854297 -752.34127167 407.05505961 -747 399 C-746.15493337 397.71875959 -745.30988087 396.43750987 -744.46484375 395.15625 C-741.99616822 391.42421355 -739.50301808 387.70907046 -737 384 C-736.57783203 383.37303223 -736.15566406 382.74606445 -735.72070312 382.10009766 C-719.16072319 357.56518001 -701.08641134 334.08791244 -681.87426758 311.57543945 C-679.10410662 308.32587598 -676.41245913 305.02550847 -673.75 301.6875 C-668.14135397 294.7991629 -661.98787735 288.42744891 -655.87597656 281.98925781 C-654.18036469 280.19125605 -652.50336224 278.37879723 -650.8359375 276.5546875 C-642.98480367 267.98445029 -634.83356659 259.72587127 -626.625 251.5 C-626.0607431 250.93315491 -625.49648621 250.36630981 -624.91513062 249.7822876 C-619.34296701 244.18995812 -613.77029873 238.64580083 -607.76171875 233.51660156 C-604.81586732 230.98062193 -602.01438615 228.29184291 -599.1875 225.625 C-594.14089056 220.89803624 -588.96665852 216.42490857 -583.56640625 212.1015625 C-581.02440637 210.01998573 -578.60470665 207.8496162 -576.1875 205.625 C-571.81377979 201.64388144 -567.25671222 197.9833368 -562.58569336 194.36328125 C-558.74918916 191.38713374 -554.97448521 188.34947502 -551.23071289 185.25756836 C-542.11371074 177.74303694 -532.65952787 170.79793012 -523 164 C-522.08734375 163.35595215 -521.1746875 162.7119043 -520.234375 162.04833984 C-507.99318305 153.42367572 -495.6602418 144.99677562 -483 137 C-482.10200684 136.42926758 -481.20401367 135.85853516 -480.27880859 135.27050781 C-466.39875769 126.45608431 -452.39583999 117.94626735 -438 110 C-436.97519531 109.43345703 -435.95039063 108.86691406 -434.89453125 108.28320312 C-388.45283566 82.73194766 -340.01254535 61.73846004 -289.86035156 44.63549805 C-288.17000715 44.05807462 -286.48138789 43.47560715 -284.79296875 42.89257812 C-224.49584757 22.18814495 -161.27371585 10.50800474 -98 4 C-97.15233063 3.91109497 -96.30466125 3.82218994 -95.43130493 3.73059082 C-82.02942048 2.3335142 -68.64903812 1.44071709 -55.1875 0.875 C-54.21510376 0.83297455 -53.24270752 0.7909491 -52.24084473 0.74765015 C-34.81071861 0.00371602 -17.44580963 -0.30465204 0 0 Z " fill="#FEFEFE" transform="translate(845,170)"/>
<path d="M0 0 C1.45679523 2.57535795 2.62431586 4.99931131 3.7578125 7.71484375 C4.10246048 8.50848328 4.44710846 9.3021228 4.80220032 10.11981201 C5.92547857 12.71928746 7.02590234 15.32771845 8.125 17.9375 C8.89396016 19.73636304 9.66357602 21.53494592 10.43383789 23.33325195 C16.30191703 37.0948703 21.85724737 50.95000857 27 65 C27.6194751 66.6696582 27.6194751 66.6696582 28.25146484 68.37304688 C36.80272171 91.45659093 43.8980619 114.79041414 49.69921875 138.7109375 C50.7317108 142.9621992 51.87015013 147.16614748 53.0625 151.375 C55.74902167 161.30393633 57.49617917 171.44852094 59.3581543 181.55810547 C59.80323278 183.94483673 60.26133818 186.32916128 60.72973633 188.71142578 C62.75108257 199.09711958 64.22814221 209.50599627 65.5625 220 C65.77237789 221.62244874 65.9826634 223.2448448 66.19335938 224.8671875 C66.70618169 228.82522567 67.21063385 232.7842756 67.71228027 236.7437439 C67.98971555 238.91935087 68.27291792 241.09413201 68.55761719 243.26879883 C75.95162606 300.18104325 75.44757528 362.31454832 66 419 C82.5 419 99 419 116 419 C116 420.65 116 422.3 116 424 C116.86030571 423.98120789 116.86030571 423.98120789 117.73799133 423.96203613 C160.61234613 423.04509886 203.49054725 422.86178129 246.37323064 422.82062757 C251.49847821 422.81530376 256.62369797 422.80476842 261.74893188 422.79199219 C268.12482986 422.77631468 274.50068433 422.76872252 280.87660211 422.77035016 C284.17609729 422.77107996 287.47544873 422.76793044 290.77493858 422.75811195 C314.06131438 422.69422558 337.33780842 423.63201557 360.4375 426.75 C362.33761841 427.00269653 362.33761841 427.00269653 364.27612305 427.26049805 C443.6797429 438.27719211 521.14752657 470.04452761 584 520 C585.16796683 520.90273133 586.33729266 521.80370648 587.5078125 522.703125 C594.02644641 527.73072923 600.28053207 532.89824534 606.3046875 538.515625 C607.71889477 539.81915518 609.13875376 541.11793331 610.60424805 542.36352539 C617.13322721 547.91554368 623.13629236 553.98537147 629.18188477 560.05151367 C631.05829475 561.93328274 632.93998969 563.80964738 634.82226562 565.68554688 C640.75873624 571.61808491 646.62172549 577.5483846 652 584 C652.53133545 584.62463135 653.0626709 585.2492627 653.61010742 585.89282227 C675.84435343 612.12282614 694.85661712 640.65475467 711 671 C711.45987305 671.86238281 711.91974609 672.72476563 712.39355469 673.61328125 C734.13338637 714.76735667 748.67752633 759.44370741 757.140625 805.140625 C757.28706451 805.93065918 757.43350403 806.72069336 757.5843811 807.53466797 C762.05515542 831.84722951 765.51322119 856.32742907 769.09001404 880.78376901 C770.12170607 887.83672531 771.16050946 894.88862951 772.1996187 901.94049621 C773.58123988 911.3173587 774.96140615 920.69443288 776.33705139 930.07217407 C778.75958718 946.58526621 781.19860497 963.09577755 783.66091156 979.60299683 C789.92604379 1021.61565288 796.0144893 1063.64441767 801.625 1105.75 C801.80762453 1107.11798359 801.80762453 1107.11798359 801.99393845 1108.51360321 C804.58174943 1127.90512467 807.08397046 1147.30738863 809.44184494 1166.72830963 C809.65799482 1168.50449093 809.87590882 1170.28045871 810.09584427 1172.05617523 C817.81901972 1234.59201723 806.79421714 1298.23901845 769 1350 C768.40155273 1350.82153564 768.40155273 1350.82153564 767.79101562 1351.65966797 C756.12777538 1367.51585248 743.17488679 1382.55649838 727.7265625 1394.828125 C725.94683126 1396.24579057 724.19001353 1397.69284997 722.4609375 1399.171875 C675.61802421 1439.08033889 610.13579185 1455.61174452 549.66308594 1451.7890625 C494.26787335 1447.32906368 441.96944027 1423.40983416 402 1385 C401.10812988 1384.14897705 401.10812988 1384.14897705 400.19824219 1383.28076172 C391.29752792 1374.74498133 383.3195606 1365.91974467 376 1356 C375.16287701 1354.89314098 374.32563808 1353.78636963 373.48828125 1352.6796875 C356.84631809 1330.37834718 345.25696292 1304.40279466 333.36504459 1279.36864185 C326.60572762 1265.14989628 319.62227311 1251.0461585 312.59765625 1236.95703125 C311.97766068 1235.71297379 311.35768552 1234.46890615 310.73773003 1233.22482872 C307.8351424 1227.40079693 304.9307327 1221.57767848 302.02398306 1215.75572282 C298.69326642 1209.08442777 295.3692829 1202.40983095 292.05063444 1195.73252469 C289.460659 1190.52243874 286.86456833 1185.31542915 284.26385874 1180.11069316 C282.71959258 1177.01981855 281.17796328 1173.92769641 279.64286995 1170.83225441 C277.94138885 1167.40172226 276.22726994 1163.97759677 274.51196289 1160.55395508 C274.01063339 1159.53848602 273.50930389 1158.52301697 272.99278259 1157.47677612 C272.52357391 1156.54530258 272.05436523 1155.61382904 271.57093811 1154.65412903 C271.16857469 1153.84701383 270.76621126 1153.03989862 270.35165501 1152.20832539 C267.9162111 1148.22931256 266.04524705 1146.37782546 261.58697414 1144.76629353 C255.66128603 1143.52761848 249.6344887 1143.72109391 243.6084137 1143.73930359 C242.25086204 1143.73627985 240.89331208 1143.73238925 239.53576511 1143.72771102 C235.82006807 1143.71745108 232.10446773 1143.7196077 228.38876283 1143.72389162 C224.37573168 1143.72636246 220.36272359 1143.71734027 216.34970093 1143.70985413 C208.49372024 1143.69711543 200.63777375 1143.69531237 192.78178448 1143.69765439 C186.39570195 1143.6994385 180.0096298 1143.69768591 173.62354851 1143.69342995 C172.71413709 1143.69283476 171.80472566 1143.69223957 170.86775632 1143.69162634 C169.02020717 1143.69041458 167.17265802 1143.68920044 165.32510888 1143.68798397 C148.00547147 1143.67711179 130.68585354 1143.6792695 113.36621504 1143.68536881 C97.5265561 1143.69053865 81.68695864 1143.6792802 65.84731186 1143.66027059 C49.57596076 1143.64089283 33.30463874 1143.63263603 17.03327602 1143.63639385 C7.90099911 1143.63830586 -1.23122547 1143.63581822 -10.36349297 1143.62167931 C-18.13717461 1143.60976539 -25.91077168 1143.60836081 -33.68445449 1143.62046947 C-37.64912673 1143.62635785 -41.61364427 1143.62745874 -45.5783062 1143.61546707 C-49.21093716 1143.6046075 -52.84328428 1143.60771232 -56.47590197 1143.62172876 C-58.40547709 1143.62562484 -60.33506483 1143.61482923 -62.26461023 1143.60343188 C-68.77008416 1143.64388145 -75.17469876 1143.77194232 -81 1147 C-83.21038864 1149.44983269 -84.55917452 1152.04032995 -86 1155 C-86.49927631 1155.95606707 -86.99855263 1156.91213413 -87.51295853 1157.89717293 C-89.31771103 1161.37875775 -91.07170456 1164.88410959 -92.81884766 1168.39477539 C-93.49104691 1169.73809897 -94.16359287 1171.0812491 -94.8364563 1172.42424011 C-96.65455114 1176.05560516 -98.46766308 1179.68943687 -100.27975893 1183.32379842 C-102.19112532 1187.15537892 -104.10676101 1190.98482414 -106.02182007 1194.81455994 C-109.24400208 1201.25985939 -112.46309137 1207.70669578 -115.68017578 1214.15454102 C-119.369323 1221.54846341 -123.06256792 1228.94032656 -126.75826228 1236.33097845 C-130.72443118 1244.26263295 -134.68752735 1252.19581995 -138.64976835 1260.12943721 C-139.77479622 1262.38159701 -140.9003721 1264.63348217 -142.02608109 1266.88530159 C-149.27643875 1281.39090094 -156.52369241 1295.89256077 -163.43165016 1310.56556034 C-174.2758205 1333.52287536 -187.62106385 1353.76036127 -204.74609375 1372.5234375 C-206.2742196 1374.20252205 -207.78685858 1375.89580823 -209.28515625 1377.6015625 C-213.89903569 1382.8406503 -218.63520758 1387.54206751 -224 1392 C-224.84820313 1392.73605469 -225.69640625 1393.47210937 -226.5703125 1394.23046875 C-275.46789191 1436.13316282 -339.34185836 1456.01453013 -403.36425781 1451.77734375 C-451.53390123 1447.650593 -497.09615272 1429.97681963 -535 1400 C-535.61891113 1399.51096191 -536.23782227 1399.02192383 -536.87548828 1398.51806641 C-551.61620725 1386.70825062 -565.56208974 1373.03661149 -577 1358 C-577.75667969 1357.071875 -578.51335937 1356.14375 -579.29296875 1355.1875 C-609.34931538 1317.72458147 -626.18781344 1269.86304503 -628 1222 C-628.06445312 1220.71867187 -628.12890625 1219.43734375 -628.1953125 1218.1171875 C-628.94605904 1196.14078874 -624.81780528 1173.74949552 -621.49658203 1152.09228516 C-620.11853808 1143.04628704 -618.98415621 1133.98027334 -617.88577271 1124.89657593 C-616.4356067 1112.96244384 -614.71540821 1101.07678307 -612.9375 1089.1875 C-610.59041213 1073.48816685 -608.55744392 1057.80024745 -607 1042 C-608.25490234 1043.12535156 -608.25490234 1043.12535156 -609.53515625 1044.2734375 C-635.4305094 1067.17652237 -662.08815797 1078.88610416 -697 1077 C-713.29195817 1075.25715412 -729.0022712 1066.56174709 -742 1057 C-743.03769531 1056.25878906 -744.07539062 1055.51757812 -745.14453125 1054.75390625 C-760.10726927 1043.7448808 -773.86374632 1029.85542237 -785 1015 C-785.91042699 1013.82862476 -786.82197137 1012.6581175 -787.734375 1011.48828125 C-840.07759231 943.75000002 -870.60064139 858.48217217 -893.23291016 776.75195312 C-894.083463 773.70057449 -894.95380553 770.65514582 -895.82421875 767.609375 C-904.57631413 736.74052751 -911.60341132 705.43351853 -918 674 C-918.2582959 672.73446289 -918.5165918 671.46892578 -918.78271484 670.16503906 C-919.51129809 666.57032068 -920.22764184 662.97345847 -920.9375 659.375 C-921.14922852 658.32022461 -921.36095703 657.26544922 -921.57910156 656.17871094 C-921.76827148 655.1993457 -921.95744141 654.21998047 -922.15234375 653.2109375 C-922.31726318 652.36837402 -922.48218262 651.52581055 -922.65209961 650.65771484 C-923.07560287 647.42244713 -923.02126065 644.25981771 -923 641 C-833.14814897 631.8242086 -833.14814897 631.8242086 -796.625 629.5 C-794.87323959 629.38682434 -794.87323959 629.38682434 -793.08609009 629.2713623 C-785.39355348 628.78219827 -777.69935695 628.36553341 -770 628 C-768.96848816 627.94912231 -767.93697632 627.89824463 -766.87420654 627.8458252 C-738.73540784 626.51501314 -710.53739413 626.75715638 -682.375 626.75 C-681.03641508 626.74928888 -679.69783018 626.7485449 -678.3592453 626.7477684 C-633.52979437 626.72497537 -588.97929445 627.3242834 -544.31011963 631.43582153 C-542.33847022 631.61687588 -540.36626597 631.79185728 -538.39404297 631.96655273 C-532.60592356 632.49576787 -526.89574015 633.15782744 -521.15625 634.078125 C-512.51160505 635.37314779 -512.51160505 635.37314779 -504 634 C-498.48387919 629.75486299 -495.43244529 623.50337452 -492.30566406 617.42626953 C-490.50308084 614.07659264 -488.37084775 611.28923106 -486 608.3125 C-485.2059375 607.30058594 -484.411875 606.28867188 -483.59375 605.24609375 C-482.73001342 604.16338645 -481.86537203 603.08140058 -481 602 C-480.24203125 601.04697998 -480.24203125 601.04697998 -479.46875 600.07470703 C-473.33770311 592.37957997 -467.12024649 584.82881601 -460.4140625 577.625 C-458.50772953 575.55209424 -456.66609935 573.45191366 -454.83203125 571.31640625 C-450.46117803 566.30485507 -445.77344196 561.62723742 -441.0625 556.9375 C-440.20720703 556.07833984 -439.35191406 555.21917969 -438.47070312 554.33398438 C-433.47572586 549.34662721 -428.36908189 544.58016732 -423 540 C-421.92866595 539.06236385 -420.85830486 538.12361448 -419.7890625 537.18359375 C-405.58920303 524.81503881 -390.73810517 513.3444569 -375 503 C-374.1857959 502.46407227 -373.3715918 501.92814453 -372.53271484 501.37597656 C-356.59212793 490.93943171 -340.35262607 480.72326268 -323.02734375 472.73046875 C-321.87596924 472.19824707 -320.72459473 471.66602539 -319.53833008 471.11767578 C-317.30480151 470.10003921 -315.06129608 469.1039543 -312.80737305 468.13232422 C-311.29784058 467.45000732 -311.29784058 467.45000732 -309.7578125 466.75390625 C-308.8620752 466.36533447 -307.96633789 465.9767627 -307.04345703 465.57641602 C-304.73082222 464.11930895 -304.73082222 464.11930895 -304.23168945 461.20092773 C-304.11700317 459.61646851 -304.11700317 459.61646851 -304 458 C-303.91242432 457.04673828 -303.82484863 456.09347656 -303.73461914 455.11132812 C-301.08564159 414.20618635 -299.67456128 373.40541039 -299.80438232 332.41149902 C-299.81523102 328.10285258 -299.81479855 323.79423723 -299.81439304 319.48557949 C-299.81510461 281.28135825 -300.38608046 243.18691465 -302.9375 205.0625 C-303.06720838 203.0557269 -303.19533088 201.0488574 -303.32317162 199.04196453 C-304.16026544 185.90510237 -305.06641002 172.77392528 -306.06640625 159.6484375 C-306.14543686 158.60700089 -306.22446747 157.56556427 -306.30589294 156.49256897 C-306.93758223 148.37205729 -307.78811211 140.28747704 -308.74121094 132.19921875 C-311.39144017 109.67727075 -311.39144017 109.67727075 -311 100 C-302.08161795 97.56653726 -293.18658805 95.62192678 -284.0625 94.125 C-272.88663637 92.25975781 -261.95750193 89.72092573 -250.96777344 86.98046875 C-246.2370628 85.80609887 -241.4970416 84.6706484 -236.7578125 83.53125 C-234.003202 82.86694775 -231.24872971 82.202076 -228.49432373 81.53692627 C-226.68798284 81.10123988 -224.88138898 80.66660073 -223.07452393 80.23309326 C-212.93508479 77.79739107 -202.93601225 75.18346963 -193 72 C-190.2964232 71.19112405 -187.58573166 70.40983196 -184.875 69.625 C-126.23888689 52.49951785 -68.92338778 30.43605739 -14.05078125 3.58984375 C-13.34864502 3.24993408 -12.64650879 2.91002441 -11.9230957 2.55981445 C-10.17285551 1.70902485 -8.42975736 0.84358208 -6.6875 -0.0234375 C-3.73930493 -1.09472931 -2.85110546 -1.1212496 0 0 Z " fill="#3A8B3D" transform="translate(1515,722)"/>
<path d="M0 0 C3.94536484 28.26454296 5.98820162 56.68098412 7.35375977 85.17431641 C7.40885963 86.31552193 7.40885963 86.31552193 7.46507263 87.4797821 C7.56260225 89.52213454 7.65669292 91.5646504 7.75048828 93.60717773 C7.92663562 97.06958668 8.2049266 100.51806993 8.49267578 103.97290039 C9.11058849 111.89296859 9.35205908 119.81100176 9.546875 127.75 C9.56756798 128.56900787 9.58826096 129.38801575 9.60958099 130.23184204 C10.23931439 155.81641759 10.24191955 181.40913544 10.25 207 C10.25132557 208.92889006 10.25132557 208.92889006 10.25267792 210.89674759 C10.27621393 249.58195153 9.88256247 288.1137084 7.22299194 326.71801758 C6.97990378 330.29577495 6.7514171 333.87429672 6.5246582 337.453125 C5.60799135 351.79358494 4.55777931 366.10982175 3.19506836 380.41503906 C2.92857413 383.21891196 2.67006798 386.02345502 2.41210938 388.828125 C2.24264013 390.63806327 2.07273708 392.44796099 1.90234375 394.2578125 C1.82628403 395.08362823 1.7502243 395.90944397 1.67185974 396.76028442 C1.33467609 400.2615743 0.91328948 403.60439035 0 407 C-8.8016568 406.5647922 -17.5228102 405.76372382 -26.2734375 404.73046875 C-27.30464722 404.60899979 -28.33585693 404.48753082 -29.39831543 404.36238098 C-31.58509595 404.1044391 -33.77186315 403.84638434 -35.95861816 403.58822632 C-63.10730141 400.40380713 -90.27566941 398.25617722 -117.55563354 396.56994629 C-122.06210692 396.28660697 -126.54993217 395.96111605 -131.0402832 395.48364258 C-136.32205947 394.9342351 -141.59715992 394.69723812 -146.90234375 394.5 C-148.43468658 394.43949966 -148.43468658 394.43949966 -149.99798584 394.3777771 C-153.31102822 394.24818967 -156.62422688 394.12353962 -159.9375 394 C-161.08489655 393.95675598 -162.23229309 393.91351196 -163.41445923 393.86895752 C-169.20259893 393.65120893 -174.99086047 393.43725044 -180.77929688 393.22753906 C-184.44491201 393.09456282 -188.11029324 392.95807181 -191.77539062 392.81152344 C-254.28009344 390.31551192 -317.41227424 391.14786258 -379.79397583 395.4753418 C-385.14023241 395.83807533 -390.48150593 396.11436457 -395.83612061 396.31648254 C-410.15133666 396.86345558 -424.37608865 398.21545847 -438.62984085 399.61162567 C-440.71178499 399.81487077 -442.79394368 400.01575901 -444.87619019 400.21588135 C-462.6796722 401.92734714 -480.47287752 403.71186236 -498.22729492 405.88208008 C-500.08124878 406.1067395 -500.08124878 406.1067395 -501.97265625 406.3359375 C-503.52351929 406.53002197 -503.52351929 406.53002197 -505.10571289 406.72802734 C-508.08843237 407.00830988 -511.00596078 407.01805307 -514 407 C-514.05819916 406.22644165 -514.11639832 405.4528833 -514.17636108 404.65588379 C-514.73399576 397.24634947 -515.29257592 389.83688725 -515.8521328 382.42749786 C-516.13954563 378.62129858 -516.42663409 374.8150755 -516.71289062 371.00878906 C-516.98947352 367.33135837 -517.26699046 363.65399916 -517.54511261 359.97668457 C-517.65639839 358.50331918 -517.76737152 357.02993013 -517.87804413 355.55651855 C-518.64692705 345.30831296 -518.64692705 345.30831296 -519.54003906 335.0703125 C-523.38504974 293.89000282 -523.32418189 252.55050491 -523.25713873 211.23311651 C-523.24959708 206.0475558 -523.25232222 200.86207158 -523.26074219 195.67651367 C-523.3330675 149.82298661 -522.32259328 104.19536017 -518.66143799 58.47039795 C-518.44135893 55.69906597 -518.22874708 52.92718021 -518.01617432 50.1552639 C-517.05840012 37.67115425 -516.05934837 25.19042964 -514.90625 12.72265625 C-514.82886597 11.86667343 -514.75148193 11.01069061 -514.67175293 10.12876892 C-514.36542007 6.92570406 -514.02125749 4.06377246 -513 1 C-506.11285593 0.56451314 -499.55531382 1.27516017 -492.76953125 2.32421875 C-479.84286349 4.24042841 -466.87014136 5.6392585 -453.875 7 C-452.64418701 7.13006439 -451.41337402 7.26012878 -450.14526367 7.39413452 C-429.16627015 9.6008718 -408.17964591 11.36000033 -387.12026978 12.58247375 C-382.77123073 12.84442322 -378.46103414 13.26562401 -374.13305664 13.7651825 C-357.13912792 15.63595886 -339.82838412 16.0912233 -322.74609375 16.5546875 C-321.60606179 16.5860914 -321.60606179 16.5860914 -320.44299889 16.61812973 C-298.59871294 17.19985955 -276.74759183 17.15173618 -254.8972168 17.13037109 C-248.92318383 17.12458491 -242.94919494 17.12802771 -236.97516346 17.13394356 C-232.31249153 17.13755936 -227.64983007 17.13640741 -222.98715782 17.13381577 C-220.78209109 17.13315393 -218.57702337 17.13394859 -216.37195778 17.13629532 C-213.31020188 17.13884865 -210.24851812 17.13494766 -207.18676758 17.12939453 C-206.29902145 17.13141876 -205.41127533 17.13344299 -204.49662781 17.13552856 C-199.37507842 17.11841252 -194.36317398 16.81478175 -189.27356911 16.23701763 C-185.4418677 15.83756604 -181.60263795 15.73107984 -177.75390625 15.60546875 C-175.95529769 15.53923829 -174.1567147 15.47231078 -172.3581543 15.40478516 C-171.41644379 15.36992004 -170.47473328 15.33505493 -169.50448608 15.2991333 C-118.17933581 13.35160677 -66.96999996 8.41188166 -16.015625 2.05078125 C-15.27492767 1.95927795 -14.53423035 1.86777466 -13.77108765 1.77349854 C-10.88728258 1.40866029 -8.0370044 1.00744006 -5.18652344 0.43432617 C-3 0 -3 0 0 0 Z " fill="#4CAF50" transform="translate(1088,840)"/>
<path d="M0 0 C3.8147645 0.48586429 6.8472977 1.73947858 10.26953125 3.44921875 C11.30553467 3.96009033 12.34153809 4.47096191 13.40893555 4.99731445 C14.53211182 5.55507568 15.65528809 6.11283691 16.8125 6.6875 C67.18848861 31.3448986 120.26185724 51.96421572 174 68 C174.85239258 68.25539551 175.70478516 68.51079102 176.58300781 68.77392578 C189.58065606 72.65636899 202.60428572 76.27395512 215.7890625 79.46337891 C219.03036336 80.25008157 222.26500035 81.06282318 225.5 81.875 C226.12874023 82.03081543 226.75748047 82.18663086 227.40527344 82.34716797 C231.59618659 83.38728564 235.77626864 84.46331464 239.953125 85.55859375 C255.07072775 89.4803615 270.21716193 92.74215259 285.56542969 95.6027832 C293.7842578 97.13966075 301.91744922 98.83920246 310 101 C309.73122865 111.45520557 308.95322569 121.79967485 307.75219727 132.1887207 C305.38041795 152.74657582 303.86975676 173.34903148 302.47831726 193.99201584 C302.31606537 196.38491762 302.15062584 198.77757809 301.98425293 201.17019653 C299.16152743 241.94454337 298.83270566 282.64392678 298.86962891 323.50683594 C298.87540562 329.9221899 298.8719785 336.33750273 298.86605644 342.7528553 C298.86243513 347.76478382 298.86359528 352.77670262 298.86618423 357.78863144 C298.86684502 360.15589274 298.86605521 362.52315496 298.86370468 364.89041519 C298.82142207 380.50607839 298.82142207 380.50607839 299.75653076 396.0859375 C300.23509394 401.81381927 300.27729223 407.56435285 300.41796875 413.30859375 C300.85108555 428.90868918 301.90307484 444.43864169 303.14786148 459.9944191 C303.3156516 462.10208827 303.48034115 464.20997931 303.64413452 466.31796265 C305.08327761 484.82076066 306.65696963 503.30321662 308.83129883 521.73657227 C309.73808727 529.52628024 310.22450319 537.15347475 310 545 C309.43643799 545.10957031 308.87287598 545.21914062 308.29223633 545.33203125 C264.31165519 553.92127246 220.83396338 563.93690021 177.875 576.75 C176.03578979 577.29684448 176.03578979 577.29684448 174.15942383 577.85473633 C168.94879405 579.42449736 163.79044094 581.0393357 158.6953125 582.953125 C154.24383392 584.61500495 149.73610017 585.96553956 145.16796875 587.26171875 C134.69762501 590.26587514 124.517417 594.01665097 114.3125 597.8125 C113.3147757 598.18238037 112.31705139 598.55226074 111.28909302 598.93334961 C75.29992729 612.30453886 39.35781668 627.12227138 5.32470703 644.96435547 C3 646 3 646 0 646 C-14.73095132 615.1540124 -27.01803619 583.35204571 -38 551 C-38.44032083 549.72001463 -38.88075075 548.44006678 -39.32128906 547.16015625 C-42.07481958 539.10312958 -44.43239153 531.00882154 -46.5 522.75 C-47.1023819 520.37878358 -47.70524808 518.00769013 -48.30859375 515.63671875 C-48.74147705 513.92814697 -48.74147705 513.92814697 -49.18310547 512.18505859 C-49.88290498 509.4565516 -50.604329 506.73642335 -51.34765625 504.01953125 C-56.34646353 485.73733213 -60.40141267 467.14343921 -63.30175781 448.41113281 C-63.84046624 444.95569589 -64.43723661 441.51304697 -65.0486145 438.06965637 C-66.94478003 427.22400629 -68.17821026 416.33427649 -69.30761719 405.38549805 C-69.62576233 402.30511884 -69.95286918 399.22578757 -70.28125 396.14648438 C-70.49271217 394.13547177 -70.70366705 392.12440574 -70.9140625 390.11328125 C-71.05625717 388.7720092 -71.05625717 388.7720092 -71.20132446 387.40364075 C-72.6304495 373.45577224 -73.17123234 359.61733801 -73.203125 345.609375 C-73.20595238 344.75111366 -73.20877975 343.89285233 -73.21169281 343.00858307 C-73.22658127 338.44891571 -73.23587077 333.88927904 -73.24023438 329.32958984 C-73.24457846 325.64556758 -73.25832579 321.96178488 -73.28125 318.27783203 C-73.42913314 294.0040682 -72.57020661 270.14143469 -70 246 C-69.80856232 244.12178114 -69.61743414 242.24353068 -69.42675781 240.36523438 C-68.99263473 236.19611712 -68.50817421 232.03575937 -68 227.875 C-67.91595917 227.17649933 -67.83191833 226.47799866 -67.74533081 225.7583313 C-66.59042981 216.18003389 -65.35093707 206.6465847 -63.44042969 197.18603516 C-62.91719061 194.58898266 -62.41623919 191.98792486 -61.9140625 189.38671875 C-60.65405718 182.91513006 -59.33853029 176.45576871 -58 170 C-57.66959717 168.40236816 -57.66959717 168.40236816 -57.33251953 166.77246094 C-46.75020951 116.12799976 -30.06344483 67.38748467 -9.32763672 20.03417969 C-8.11750266 17.26854046 -6.91758501 14.49879721 -5.72265625 11.7265625 C-5.08625193 10.2550723 -4.44956243 8.7837054 -3.8125 7.3125 C-3.39339355 6.34123169 -3.39339355 6.34123169 -2.96582031 5.3503418 C-1.11628381 1.11628381 -1.11628381 1.11628381 0 0 Z " fill="#4CAF50" transform="translate(149,721)"/>
<path d="M0 0 C1.60039647 1.22668911 3.18795503 2.47007223 4.77490234 3.71411133 C5.65662109 4.37411133 6.53833984 5.03411133 7.44677734 5.71411133 C20.60414585 15.92103962 32.7506919 28.44975205 42.77490234 41.71411133 C43.92309451 43.19607227 45.07155802 44.677823 46.22021484 46.15942383 C59.25957009 63.12011318 70.27592376 81.10061819 80.77490234 99.71411133 C81.48598145 100.96369629 81.48598145 100.96369629 82.21142578 102.23852539 C113.89939627 158.09995099 137.02523773 221.42780376 152.49365234 283.66333008 C153.5324983 287.83385045 154.69357132 291.95563993 155.90942383 296.07763672 C163.89253879 323.15389903 169.58218579 350.7941792 175.25939941 378.42416382 C176.89174671 386.34123824 178.61631819 394.23723433 180.45532227 402.10913086 C181.50688151 406.76705064 181.97288862 410.93689419 181.77490234 415.71411133 C178.06950931 416.94924234 174.39068493 417.30337985 170.52880859 417.72973633 C169.24884506 417.87378151 169.24884506 417.87378151 167.94302368 418.02073669 C165.07503836 418.34047906 162.20635945 418.65321344 159.33740234 418.96411133 C157.843535 419.12685043 157.843535 419.12685043 156.31948853 419.2928772 C119.67780663 423.25737518 82.87542048 426.46193675 46.06617451 428.37848663 C41.85310429 428.59920854 37.64155209 428.83851055 33.43021202 429.08996868 C4.88411654 430.77756842 -23.61533797 431.07329714 -52.20603561 431.03136063 C-55.89632253 431.02655108 -59.58659617 431.02552003 -63.27688599 431.02511597 C-149.11089158 430.99129778 -149.11089158 430.99129778 -180.50048828 427.21948242 C-185.5109344 426.63619364 -190.53075696 426.37721106 -195.56590271 426.09654236 C-214.06562259 425.06222806 -232.45908841 423.32578001 -250.88354492 421.39013672 C-254.74493107 420.9860045 -258.60713178 420.58980468 -262.46923828 420.19262695 C-269.30349878 419.48830594 -276.13752641 418.78195834 -282.96969604 418.05758667 C-285.00372366 417.84297772 -287.03826608 417.63313165 -289.07351685 417.43045044 C-295.00716891 416.8230757 -295.00716891 416.8230757 -297.22509766 415.71411133 C-297.39916645 410.3360926 -296.77922607 405.52237655 -295.68603516 400.26489258 C-295.52491745 399.46337769 -295.36379974 398.66186279 -295.19779968 397.83605957 C-294.67218826 395.23144278 -294.13657792 392.62900937 -293.60009766 390.02661133 C-293.22923043 388.20661286 -292.85870947 386.38654379 -292.48852539 384.56640625 C-291.5739317 380.08132621 -290.6498849 375.59826032 -289.72174072 371.1159668 C-289.27951712 368.97729367 -288.84010476 366.83807644 -288.40234375 364.69848633 C-285.43868053 350.25982124 -282.13213644 335.91325463 -278.66259766 321.58911133 C-278.47859406 320.82700348 -278.29459045 320.06489563 -278.10501099 319.2796936 C-275.54869678 308.7214769 -272.77114862 298.23979805 -269.8117981 287.78753662 C-269.26966152 285.871602 -268.73239042 283.95429242 -268.19555664 282.03686523 C-253.31987317 229.06820515 -234.97099431 177.39095752 -211.22509766 127.71411133 C-210.80019043 126.82433594 -210.3752832 125.93456055 -209.9375 125.01782227 C-187.59094537 78.55328576 -156.67454471 26.27846426 -112.22509766 -2.28588867 C-111.59764648 -2.69371582 -110.97019531 -3.10154297 -110.32373047 -3.52172852 C-74.68870926 -26.44794484 -34.33872633 -25.5961041 0 0 Z " fill="#4CAF50" transform="translate(889.22509765625,308.285888671875)"/>
<path d="M0 0 C1.45679523 2.57535795 2.62431586 4.99931131 3.7578125 7.71484375 C4.10246048 8.50848328 4.44710846 9.3021228 4.80220032 10.11981201 C5.92547857 12.71928746 7.02590234 15.32771845 8.125 17.9375 C8.89396016 19.73636304 9.66357602 21.53494592 10.43383789 23.33325195 C16.30191703 37.0948703 21.85724737 50.95000857 27 65 C27.4129834 66.11310547 27.8259668 67.22621094 28.25146484 68.37304688 C36.80272171 91.45659093 43.8980619 114.79041414 49.69921875 138.7109375 C50.7317108 142.9621992 51.87015013 147.16614748 53.0625 151.375 C55.74902167 161.30393633 57.49617917 171.44852094 59.3581543 181.55810547 C59.80323278 183.94483673 60.26133818 186.32916128 60.72973633 188.71142578 C62.75108257 199.09711958 64.22814221 209.50599627 65.5625 220 C65.77237789 221.62244874 65.9826634 223.2448448 66.19335938 224.8671875 C66.70618169 228.82522567 67.21063385 232.7842756 67.71228027 236.7437439 C67.98971555 238.91935087 68.27291792 241.09413201 68.55761719 243.26879883 C75.95162606 300.18104325 75.44757528 362.31454832 66 419 C48.84 419 31.68 419 14 419 C14 420.65 14 422.3 14 424 C13.05586054 424.00496522 13.05586054 424.00496522 12.09264755 424.01003075 C-3.46162331 424.0924454 -19.0158009 424.18488185 -34.5699501 424.28752708 C-42.09283837 424.33694791 -49.61571941 424.38332631 -57.13867188 424.421875 C-99.25555652 424.60294205 -99.25555652 424.60294205 -141.34765625 425.94921875 C-142.22503197 425.9898431 -143.10240768 426.03046745 -144.00637054 426.07232285 C-157.75703211 426.72854488 -171.38885365 427.87486987 -185 430 C-185.75522949 430.11456543 -186.51045898 430.22913086 -187.28857422 430.34716797 C-199.03183609 432.16253872 -210.6435733 434.74606536 -222.22753906 437.37353516 C-223.9493731 437.76260051 -225.67247826 438.14613733 -227.39746094 438.52099609 C-253.56327964 444.22525809 -279.28908423 453.79910833 -304 464 C-303.9498877 463.08976074 -303.89977539 462.17952148 -303.84814453 461.24169922 C-303.2583835 450.45883474 -302.69853624 439.67458494 -302.14823151 428.88964081 C-302.00883971 426.1723222 -301.8670246 423.45514083 -301.72467041 420.73797607 C-300.19494828 391.28216248 -299.71098393 361.90413859 -299.80438232 332.41149902 C-299.81523102 328.10285258 -299.81479855 323.79423723 -299.81439304 319.48557949 C-299.81510461 281.28135825 -300.38608046 243.18691465 -302.9375 205.0625 C-303.06720838 203.0557269 -303.19533088 201.0488574 -303.32317162 199.04196453 C-304.16026544 185.90510237 -305.06641002 172.77392528 -306.06640625 159.6484375 C-306.18495216 158.08628258 -306.18495216 158.08628258 -306.30589294 156.49256897 C-306.93758223 148.37205729 -307.78811211 140.28747704 -308.74121094 132.19921875 C-311.39144017 109.67727075 -311.39144017 109.67727075 -311 100 C-302.08161795 97.56653726 -293.18658805 95.62192678 -284.0625 94.125 C-272.88663637 92.25975781 -261.95750193 89.72092573 -250.96777344 86.98046875 C-246.2370628 85.80609887 -241.4970416 84.6706484 -236.7578125 83.53125 C-234.003202 82.86694775 -231.24872971 82.202076 -228.49432373 81.53692627 C-226.68798284 81.10123988 -224.88138898 80.66660073 -223.07452393 80.23309326 C-212.93508479 77.79739107 -202.93601225 75.18346963 -193 72 C-190.2964232 71.19112405 -187.58573166 70.40983196 -184.875 69.625 C-126.23888689 52.49951785 -68.92338778 30.43605739 -14.05078125 3.58984375 C-13.34864502 3.24993408 -12.64650879 2.91002441 -11.9230957 2.55981445 C-10.17285551 1.70902485 -8.42975736 0.84358208 -6.6875 -0.0234375 C-3.73930493 -1.09472931 -2.85110546 -1.1212496 0 0 Z " fill="#4CAF50" transform="translate(1515,722)"/>
<path d="M0 0 C1.33858492 -0.00071112 2.67716982 -0.0014551 4.0157547 -0.0022316 C43.20846679 -0.0221587 82.28309499 0.14636239 121.375 3.25 C122.24008179 3.31743408 123.10516357 3.38486816 123.99645996 3.4543457 C132.9989542 4.16040678 141.98396473 4.97904395 150.96630859 5.90917969 C156.78390665 6.49085616 162.61032868 6.96314508 168.4375 7.4375 C169.4574707 7.52136963 170.47744141 7.60523926 171.52832031 7.69165039 C173.81044937 7.87899839 176.09266372 8.06519679 178.375 8.25 C177.39722748 9.93830818 176.41765183 11.62557202 175.4375 13.3125 C174.46683594 14.983125 174.46683594 14.983125 173.4765625 16.6875 C172.14653916 18.95905614 170.78619398 21.19953698 169.3984375 23.4375 C136.50592897 76.65683964 117.70437735 136.70815849 108.375 198.25 C107.98107636 200.81322026 107.5857819 203.37622744 107.19050598 205.9392395 C106.59073446 209.83267121 105.99436657 213.72662136 105.39819336 217.62060547 C105.09378782 219.6057748 104.78846606 221.59080388 104.48217773 223.57568359 C102.6360996 235.54384297 100.89325497 247.5153006 99.39222717 259.53219604 C98.70814414 264.95502504 97.87723363 270.3140414 96.875 275.6875 C95.43417453 283.45029213 94.44360601 291.24325176 93.55273438 299.08764648 C92.8808379 304.82086834 92.00367072 310.48978446 90.96875 316.16796875 C89.13575355 326.25793532 87.75688378 336.40259536 86.375 346.5625 C85.87670467 350.20466253 85.37620668 353.84651835 84.875 357.48828125 C84.75260956 358.38260361 84.63021912 359.27692596 84.50411987 360.198349 C83.76877898 365.5342633 82.98037424 370.85927797 82.1545105 376.18188477 C81.14977017 382.66651395 80.22951064 389.09532805 79.7421875 395.64453125 C79.65710938 396.72154297 79.57203125 397.79855469 79.484375 398.90820312 C79.32448854 401.06000838 79.1928644 403.21405451 79.0859375 405.36914062 C78.41051432 413.0849124 78.41051432 413.0849124 75.48828125 416.37280273 C73.19353031 418.16108739 70.84281622 419.71202259 68.375 421.25 C67.19823141 422.16687932 66.03509367 423.10170115 64.890625 424.05859375 C52.38043127 434.172177 39.53989058 441.83369786 24.375 447.25 C22.86099609 447.79527344 22.86099609 447.79527344 21.31640625 448.3515625 C-2.10709002 455.15295762 -26.81775858 449.657688 -47.625 438.25 C-51.79997661 435.79324481 -55.72415081 433.11965007 -59.625 430.25 C-60.66269531 429.50878906 -61.70039062 428.76757812 -62.76953125 428.00390625 C-77.73226927 416.9948808 -91.48874632 403.10542237 -102.625 388.25 C-103.53542699 387.07862476 -104.44697137 385.9081175 -105.359375 384.73828125 C-157.70259231 317.00000002 -188.22564139 231.73217217 -210.85791016 150.00195312 C-211.708463 146.95057449 -212.57880553 143.90514582 -213.44921875 140.859375 C-222.20131413 109.99052751 -229.22841132 78.68351853 -235.625 47.25 C-235.8832959 45.98446289 -236.1415918 44.71892578 -236.40771484 43.41503906 C-237.13629809 39.82032068 -237.85264184 36.22345847 -238.5625 32.625 C-238.77422852 31.57022461 -238.98595703 30.51544922 -239.20410156 29.42871094 C-239.39327148 28.4493457 -239.58244141 27.46998047 -239.77734375 26.4609375 C-239.94226318 25.61837402 -240.10718262 24.77581055 -240.27709961 23.90771484 C-240.70060287 20.67244713 -240.64626065 17.50981771 -240.625 14.25 C-150.77314897 5.0742086 -150.77314897 5.0742086 -114.25 2.75 C-113.08215973 2.67454956 -111.91431946 2.59909912 -110.71109009 2.5213623 C-103.01855348 2.03219827 -95.32435695 1.61553341 -87.625 1.25 C-86.59348816 1.19912231 -85.56197632 1.14824463 -84.49920654 1.0958252 C-56.36040784 -0.23498686 -28.16239413 0.00715638 0 0 Z " fill="#4CAF50" transform="translate(832.625,1348.75)"/>
<path d="M0 0 C2.04898464 10.07479333 4.05715219 20.15375698 5.89453125 30.26953125 C6.12709122 31.54915489 6.12709122 31.54915489 6.36434937 32.85462952 C6.52126251 33.71817551 6.67817566 34.5817215 6.83984375 35.47143555 C10.40851675 55.10707853 14.31503541 74.59583703 19 94 C19.16497986 94.68358582 19.32995972 95.36717163 19.49993896 96.07147217 C20.714036 101.09307378 21.94530102 106.1102808 23.1875 111.125 C23.43137451 112.11323257 23.43137451 112.11323257 23.68017578 113.12142944 C25.59227839 120.84144647 27.70614438 128.45502651 30.09106445 136.04199219 C31.11788813 139.38365097 32.00723142 142.74507836 32.87329102 146.13110352 C37.10987094 162.56744923 42.69856455 178.58601209 48.19146729 194.63433838 C48.98413355 196.95357682 49.7726182 199.27419754 50.56005859 201.59521484 C67.58999892 251.71164651 88.43191979 300.29329437 111.7734375 347.78125 C112.27566833 348.80390457 112.77789917 349.82655914 113.29534912 350.88020325 C115.81693464 356.01174619 118.34644884 361.13914706 120.88867188 366.26049805 C121.81914601 368.14625472 122.74949061 370.03207531 123.6796875 371.91796875 C124.33485855 373.22834106 124.33485855 373.22834106 125.00326538 374.56518555 C125.39905792 375.37020508 125.79485046 376.17522461 126.20263672 377.00463867 C126.55123749 377.70691086 126.89983826 378.40918304 127.25900269 379.13273621 C128 381 128 381 128 384 C119.86862427 381.77279171 112.11298262 378.78285532 104.3046875 375.625 C102.98650749 375.09491505 101.66823761 374.56505353 100.34988403 374.03540039 C97.59029054 372.92547958 94.83205273 371.81227001 92.07470703 370.69677734 C89.30179797 369.5753022 86.52713376 368.4583832 83.75048828 367.34619141 C66.27719301 360.3470752 49.03304497 353.02627933 32 345 C29.03382012 343.61394435 26.06705414 342.22914942 23.10020447 340.8445282 C-16.47511327 322.22696247 -53.65152269 298.65542437 -89 273 C-89.73750488 272.46761719 -90.47500977 271.93523437 -91.23486328 271.38671875 C-100.48402993 264.70121057 -109.53852033 257.91779914 -118.1640625 250.44140625 C-120.71075466 248.24900597 -123.29856863 246.14204624 -125.9375 244.0625 C-136.38583334 235.76131607 -146.32723567 226.90179444 -156.06860352 217.7878418 C-157.57093466 216.39717425 -159.08402216 215.01812315 -160.60131836 213.64379883 C-167.80432199 207.1172508 -174.76934059 200.38704115 -181.62915039 193.5012207 C-183.32519726 191.79976222 -185.02659821 190.10378737 -186.72851562 188.40820312 C-191.83582379 183.30400691 -196.86269574 178.18905175 -201.55249023 172.69262695 C-203.75243437 170.12015053 -206.06794032 167.6642983 -208.375 165.1875 C-212.66430703 160.54442811 -216.72678619 155.76558383 -220.69140625 150.83984375 C-222.77108772 148.28158922 -224.89094876 145.76816397 -227.03491211 143.26416016 C-232.94256123 136.36007727 -238.53080169 129.25572189 -244 122 C-244.45987305 121.39317383 -244.91974609 120.78634766 -245.39355469 120.16113281 C-253.42777064 109.55944906 -261.2478503 98.80922918 -269 88 C-267.38920471 84.77840942 -264.01035429 84.0343646 -260.8359375 82.65625 C-260.10104599 82.33114944 -259.36615448 82.00604889 -258.60899353 81.6710968 C-256.20045759 80.60758517 -253.78790816 79.55355003 -251.375 78.5 C-249.70707982 77.76696502 -248.03935597 77.03348315 -246.37182617 76.29956055 C-243.0699417 74.84759653 -239.76637709 73.39955874 -236.46142578 71.95458984 C-232.85211166 70.37559194 -229.25019038 68.78077083 -225.65234375 67.17578125 C-200.26129885 55.89793493 -174.24826052 46.08196105 -148 37 C-147.2147998 36.72720215 -146.42959961 36.4544043 -145.62060547 36.17333984 C-137.37852261 33.32215979 -129.06111039 30.77566587 -120.68359375 28.359375 C-117.48059701 27.43552481 -114.28723102 26.48476742 -111.09765625 25.515625 C-83.66555342 17.2484849 -55.73289247 9.89720892 -27.58789062 4.50292969 C-24.8191711 3.96485778 -22.05808245 3.39564226 -19.296875 2.8203125 C-17.46877759 2.4425748 -15.64065375 2.06496497 -13.8125 1.6875 C-12.58092163 1.42948608 -12.58092163 1.42948608 -11.32446289 1.16625977 C-10.18352173 0.93507446 -10.18352173 0.93507446 -9.01953125 0.69921875 C-8.36057861 0.56346436 -7.70162598 0.42770996 -7.02270508 0.2878418 C-4.66292852 -0.04796708 -2.38035899 -0.0462582 0 0 Z " fill="#4CAF50" transform="translate(477,1382)"/>
<path d="M0 0 C0.33 0.66 0.66 1.32 1 2 C0.33456421 3.83639526 0.33456421 3.83639526 -0.79150391 6.09716797 C-1.21057007 6.94865417 -1.62963623 7.80014038 -2.06140137 8.6774292 C-2.52840454 9.60629944 -2.99540771 10.53516968 -3.4765625 11.4921875 C-3.95339478 12.45682922 -4.43022705 13.42147095 -4.92150879 14.41534424 C-5.94812518 16.49079725 -6.97818697 18.56454876 -8.0112915 20.63677979 C-10.70180693 26.03582271 -13.36522081 31.44821066 -16.03125 36.859375 C-16.81872116 38.45539047 -16.81872116 38.45539047 -17.62210083 40.08364868 C-23.12043926 51.24151461 -28.40700333 62.48479644 -33.54931641 73.81152344 C-35.05566218 77.12234064 -36.58032298 80.42436859 -38.10546875 83.7265625 C-57.20778423 125.38282054 -72.80253816 168.46054392 -87 212 C-87.33402832 213.02287109 -87.66805664 214.04574219 -88.01220703 215.09960938 C-94.25311695 234.29699987 -99.53604167 253.71003277 -104.34033203 273.31298828 C-105.23608125 276.96162481 -106.14870757 280.60583984 -107.0625 284.25 C-107.53042969 286.13138672 -107.53042969 286.13138672 -108.0078125 288.05078125 C-108.71567841 290.88583447 -109.44382643 293.7150582 -110.1796875 296.54296875 C-113.12589164 307.95489194 -115.56239438 319.42063921 -117.81640625 330.98828125 C-118.66710099 335.35143354 -119.5700557 339.69867587 -120.51831055 344.04150391 C-123.47710624 357.60727474 -125.70618895 371.30934625 -128 385 C-133.76536236 384.4267143 -139.43102188 383.64747233 -145.1171875 382.5390625 C-145.8756749 382.3928949 -146.63416229 382.24672729 -147.41563416 382.09613037 C-149.90345761 381.61243537 -152.38944785 381.12022966 -154.875 380.625 C-155.73660736 380.45381653 -156.59821472 380.28263306 -157.4859314 380.10626221 C-171.69807335 377.2613277 -185.77266126 373.97150536 -199.8125 370.375 C-200.68976746 370.1516095 -201.56703491 369.92821899 -202.47088623 369.69805908 C-212.56266196 367.11635378 -222.54571301 364.30523869 -232.45368958 361.08517456 C-237.70227141 359.38051071 -242.98448332 357.87320035 -248.3125 356.4375 C-291.87926963 344.30196231 -333.83390123 326.50126568 -375 308 C-376.03495605 307.5354541 -377.06991211 307.0709082 -378.13623047 306.59228516 C-383.76021448 304.06754699 -389.381521 301.53696429 -395 299 C-395 293.97554186 -392.94233885 291.53947562 -390.125 287.625 C-389.62613281 286.91819092 -389.12726563 286.21138184 -388.61328125 285.4831543 C-387.58110065 284.02323936 -386.5449333 282.56613529 -385.50488281 281.11181641 C-384.13028738 279.18283352 -382.77602606 277.24172781 -381.4296875 275.29296875 C-376.12077407 267.655901 -370.37355484 260.54143562 -364.29199219 253.50976562 C-362.33965762 251.22835274 -360.45232218 248.89578226 -358.5625 246.5625 C-353.66486893 240.54939424 -348.61101512 234.67664423 -343.54833984 228.80273438 C-342.02159309 227.02514087 -340.50358292 225.24047985 -338.98828125 223.453125 C-328.71843136 211.35207335 -317.95260681 199.86338897 -306.75 188.625 C-306.2781427 188.15046387 -305.8062854 187.67592773 -305.32012939 187.18701172 C-300.24245145 182.08747484 -295.11639916 177.12066732 -289.65332031 172.43505859 C-287.66988263 170.7134628 -285.82384785 168.88898527 -284 167 C-280.8288397 163.78565269 -277.54417247 160.78249037 -274.12109375 157.83984375 C-271.77508942 155.80491181 -269.4826355 153.71709033 -267.1875 151.625 C-261.93801145 146.89486725 -256.51631394 142.41451049 -251 138 C-250.49017578 137.59056152 -249.98035156 137.18112305 -249.45507812 136.75927734 C-218.72524479 112.13215571 -186.0352817 89.78247167 -152 70 C-151.01515625 69.42572266 -150.0303125 68.85144531 -149.015625 68.25976562 C-101.59271542 40.7532235 -50.88082618 20.11413675 0 0 Z " fill="#4CAF50" transform="translate(605,321)"/>
<path d="M0 0 C3.8021044 0.64686813 7.15775197 1.73812666 10.73535156 3.17041016 C12.43865883 3.84926018 12.43865883 3.84926018 14.17637634 4.54182434 C15.41455028 5.0406778 16.65263054 5.53976381 17.890625 6.0390625 C19.18400294 6.55751698 20.47746683 7.07575707 21.77101135 7.59379578 C25.22115292 8.97762093 28.66846417 10.36835613 32.11474991 11.76175308 C34.25096952 12.62539196 36.38771319 13.48772456 38.52450562 14.34994507 C58.11604981 22.26156555 77.59555244 30.3327829 96.67724609 39.41943359 C100.01099713 41.00523111 103.35739195 42.56136839 106.70703125 44.11328125 C120.8814763 50.73185234 134.490635 58.12189631 148 66 C149.48000224 66.85107218 150.96043956 67.70138844 152.44140625 68.55078125 C175.80571129 82.02892441 198.19206054 97.14472374 220 113 C221.12220947 113.81452637 221.12220947 113.81452637 222.26708984 114.64550781 C231.72373055 121.52202912 241.07759194 128.43681248 250 136 C251.00933594 136.84820312 252.01867188 137.69640625 253.05859375 138.5703125 C255.80498346 140.88148652 258.54084926 143.20476041 261.2734375 145.53222656 C263.06407472 147.05447076 264.85998563 148.57033944 266.65625 150.0859375 C272.39059859 154.94118705 277.98060674 159.81000504 283.21484375 165.2109375 C285.05148999 167.05160266 286.96355946 168.74555096 288.9375 170.4375 C291.92801716 173.00665271 294.73116684 175.69317256 297.5 178.5 C300.20803565 181.24500542 302.94169249 183.8727091 305.875 186.375 C313.17649189 192.65632336 319.94955371 199.59437558 326.19921875 206.91796875 C328.37324202 209.43153578 330.62390488 211.86776229 332.875 214.3125 C336.94220272 218.77172225 340.79525045 223.35595507 344.5859375 228.05078125 C347.33862086 231.4136873 350.16188669 234.70923349 353 238 C357.34479273 243.04320929 361.611819 248.13834196 365.80078125 253.3125 C367.29812521 255.14229155 368.81739698 256.95430758 370.35546875 258.75 C376.97215813 266.49226293 382.80157658 274.6439715 388.60449219 283.00390625 C391.6676517 287.38536044 394.83584372 291.69116365 398 296 C395.64907485 298.35092515 393.555165 299.22825203 390.515625 300.58203125 C389.36811768 301.09531982 388.22061035 301.6086084 387.03833008 302.13745117 C385.77569616 302.69612358 384.51291528 303.25446393 383.25 303.8125 C381.94223103 304.39347761 380.63453361 304.97461632 379.3269043 305.5559082 C375.90171363 307.07619585 372.47322243 308.58889257 369.04364014 310.09924316 C367.06483831 310.9714218 365.08719281 311.84616912 363.10986328 312.72167969 C339.00457605 323.38514876 314.55568234 332.83747552 289.69921875 341.6171875 C285.48026759 343.10963018 281.27453305 344.63013075 277.08203125 346.1953125 C266.92532125 349.98498385 256.7769697 353.36539193 246.32421875 356.23828125 C241.24649042 357.63603061 236.19453814 359.11153745 231.14453125 360.60546875 C212.87196213 366.00122059 194.64596263 371.03800979 176 375 C174.45023713 375.33440094 172.90060366 375.6694019 171.35107422 376.00488281 C166.21509221 377.11626117 161.07670137 378.21611669 155.9375 379.3125 C154.69577026 379.57865616 154.69577026 379.57865616 153.42895508 379.85018921 C151.0460697 380.35934489 148.66194487 380.86223001 146.27734375 381.36328125 C145.22413185 381.58940598 145.22413185 381.58940598 144.14964294 381.82009888 C139.12439384 382.86621155 134.10826993 383.50916417 129 384 C128.81526123 383.03030273 128.63052246 382.06060547 128.44018555 381.06152344 C117.16946982 321.70788152 117.16946982 321.70788152 103 263 C102.79246094 262.21431641 102.58492187 261.42863281 102.37109375 260.61914062 C100.98725707 255.39080404 99.5147682 250.19179376 98 245 C97.70963867 244.00033203 97.41927734 243.00066406 97.12011719 241.97070312 C76.2805497 170.55067786 49.15110127 102.4041142 16.68408203 35.47705078 C14.06742452 30.07455204 11.46817968 24.66380015 8.875 19.25 C8.43792725 18.34032471 8.00085449 17.43064941 7.55053711 16.4934082 C4.93829155 11.03600082 2.42494001 5.54320083 0 0 Z " fill="#4CAF50" transform="translate(1057,322)"/>
<path d="M0 0 C33.66 0 67.32 0 102 0 C102 33.33 102 66.66 102 101 C133.36860756 100.88125845 133.36860756 100.88125845 164.73706055 100.72973633 C170.80822754 100.71618652 170.80822754 100.71618652 173.65168762 100.71366882 C175.63482177 100.70906636 177.61794759 100.69852394 179.60102844 100.68327332 C182.60745803 100.66131137 185.61337524 100.65828206 188.61987305 100.65942383 C189.5012453 100.6486295 190.38261755 100.63783518 191.29069805 100.62671375 C196.01198431 100.65071346 199.19350329 100.8890434 203 104 C205.03383352 107.05075029 205.24936221 107.6215043 205.24050903 111.04325867 C205.24464152 112.27115254 205.24464152 112.27115254 205.2488575 113.52385235 C205.24166128 114.42178918 205.23446507 115.31972601 205.22705078 116.24487305 C205.22729185 117.20671666 205.22753292 118.16856028 205.2277813 119.15955067 C205.22628697 122.2770337 205.21104865 125.39427842 205.1953125 128.51171875 C205.19237244 130.43477259 205.19033177 132.35782803 205.18920898 134.28088379 C205.17871739 141.41644691 205.15079504 148.55197579 205.125 155.6875 C205.08375 171.630625 205.0425 187.57375 205 204 C171.34 204 137.68 204 103 204 C103 237.66 103 271.32 103 306 C69.34 306 35.68 306 1 306 C1 272.34 1 238.68 1 204 C-32.99 204 -66.98 204 -102 204 C-102.165 187.933125 -102.33 171.86625 -102.5 155.3125 C-102.57283203 150.24173096 -102.64566406 145.17096191 -102.72070312 139.9465332 C-102.75683594 133.74841309 -102.75683594 133.74841309 -102.7635498 130.84562683 C-102.77582495 128.82070351 -102.80394364 126.79583827 -102.84460449 124.77128601 C-102.90317717 121.70106701 -102.91124944 118.63441467 -102.90820312 115.5637207 C-102.93698799 114.66361173 -102.96577286 113.76350275 -102.99542999 112.83611774 C-102.94905368 109.34421942 -102.88195851 106.98343153 -100.49323273 104.31987286 C-95.396277 100.7144914 -90.54688549 100.30388154 -84.46289062 100.43237305 C-83.53018089 100.43177037 -82.59747116 100.4311677 -81.6364975 100.43054676 C-78.64245709 100.43425383 -75.65000882 100.47220939 -72.65625 100.51171875 C-70.79785917 100.51907801 -68.93945797 100.52417407 -67.08105469 100.52697754 C-60.2205442 100.55310125 -53.36025615 100.62290787 -46.5 100.6875 C-23.4825 100.8421875 -23.4825 100.8421875 0 101 C0 67.67 0 34.34 0 0 Z " fill="#FEFEFE" transform="translate(1248,1353)"/>
<path d="M0 0 C9.50305786 7.83382509 16.39051574 18.72934461 20.62109375 30.2265625 C20.93949219 31.08894531 21.25789063 31.95132812 21.5859375 32.83984375 C27.00434727 50.49337236 24.13236524 69.31453425 15.8659668 85.43334961 C7.43358855 101.13886684 -5.08275364 110.67267504 -21.37890625 117.2265625 C-22.24 117.58492187 -23.10109375 117.94328125 -23.98828125 118.3125 C-38.55204693 123.88099864 -55.72161105 122.34172766 -69.87890625 116.4765625 C-71.38910378 115.74731396 -72.88851284 114.99547568 -74.37890625 114.2265625 C-75.30316406 113.76765625 -76.22742187 113.30875 -77.1796875 112.8359375 C-94.31116143 103.68137556 -104.74124339 88.86708365 -110.46875 70.5390625 C-115.3748191 52.68349772 -112.4976716 34.24827233 -103.7578125 18.10546875 C-100.19149101 11.98723938 -95.45321515 7.10837106 -90.37890625 2.2265625 C-89.80785156 1.63617187 -89.23679687 1.04578125 -88.6484375 0.4375 C-63.88908723 -23.36711954 -25.67380722 -19.13942279 0 0 Z " fill="#FEFEFE" transform="translate(1960.37890625,1589.7734375)"/>
<path d="M0 0 C1.63908325 0.00858032 1.63908325 0.00858032 3.3112793 0.01733398 C12.0039295 0.20912636 18.81855979 1.47973418 26.625 5.5 C27.66527344 6.01949219 28.70554687 6.53898437 29.77734375 7.07421875 C47.17728846 16.48730359 58.75441646 31.3942756 65 50 C69.82736529 68.35615794 66.39681445 86.63095192 57.6015625 103.2109375 C47.84686491 119.44306274 33.37162158 129.42971482 15.4375 134.9375 C-2.53163319 139.24785282 -20.26896031 136.72641246 -36.30859375 127.4765625 C-52.32734519 117.15109979 -63.73940227 102.29518101 -68.375 83.6875 C-71.86253656 63.6740549 -68.91043088 45.36418745 -57.375 28.5 C-54.57604935 24.93414664 -51.59582187 21.68637458 -48.375 18.5 C-47.78589844 17.87738281 -47.19679688 17.25476562 -46.58984375 16.61328125 C-42.44074226 12.5553688 -37.74616469 9.88394887 -32.625 7.25 C-31.99392334 6.9204834 -31.36284668 6.5909668 -30.71264648 6.25146484 C-20.92304496 1.45179814 -10.8169379 -0.06641316 0 0 Z " fill="#FEFEFE" transform="translate(2054.375,1437.5)"/>
<path d="M0 0 C3.52845985 2.82276788 6.80295426 5.80870434 10 9 C10.55171875 9.54011719 11.1034375 10.08023437 11.671875 10.63671875 C23.66073515 23.43128186 28.65479142 39.93870315 28.328125 57.15844727 C28.24664732 59.44144258 28.13362007 61.71951579 28 64 C27.94070313 65.08152344 27.88140625 66.16304687 27.8203125 67.27734375 C25.98496673 83.59401526 15.86991331 98.21302298 3.8125 108.75 C-4.9754363 115.61788299 -15.12362136 120.47060962 -26 123 C-27.11568359 123.27263672 -27.11568359 123.27263672 -28.25390625 123.55078125 C-45.85379666 126.42985294 -62.89219841 122.3097712 -78 113 C-81.5869652 110.22378721 -84.79868086 107.20707691 -88 104 C-88.95132812 103.15501953 -88.95132812 103.15501953 -89.921875 102.29296875 C-102.44418752 90.90652971 -107.21396926 74.30571392 -108.29296875 57.98828125 C-109.13736684 39.28312257 -102.76085651 23.89907171 -90.6875 9.6875 C-66.68088362 -15.67565464 -28.65975202 -20.09800282 0 0 Z " fill="#FEFEFE" transform="translate(1956,1313)"/>
<path d="M0 0 C3.66426241 2.73127739 6.841458 5.70462585 10 9 C10.69351562 9.66257812 11.38703125 10.32515625 12.1015625 11.0078125 C24.55113264 23.64965399 29.52835529 40.71827261 29.42016602 58.02246094 C28.87749413 77.53090826 20.81103776 93.57829417 7 107 C6.03707031 107.94166016 6.03707031 107.94166016 5.0546875 108.90234375 C-8.73295761 121.5036101 -27.79951325 125.96602763 -45.9609375 125.15234375 C-50.86009795 124.78631452 -55.36839086 123.58027164 -60 122 C-61.44052734 121.52433594 -61.44052734 121.52433594 -62.91015625 121.0390625 C-80.87822386 114.36317967 -93.53958528 101.46640271 -101.59765625 84.26953125 C-108.77651958 67.53218138 -109.47371494 48.02877518 -102.8125 30.9375 C-94.78181083 13.06048759 -81.82644268 0.16520312 -63.625 -7.375 C-62.09654502 -7.95289641 -60.5531911 -8.49232265 -59 -9 C-57.99066406 -9.35707031 -56.98132812 -9.71414063 -55.94140625 -10.08203125 C-37.09426084 -15.34829434 -16.17817744 -10.01236856 0 0 Z " fill="#FEFEFE" transform="translate(1818,1449)"/>
</svg>
